<?xml version="1.0" standalone="no"?>
<!DOCTYPE svg PUBLIC "-//W3C//DTD SVG 20010904//EN"
 "http://www.w3.org/TR/2001/REC-SVG-20010904/DTD/svg10.dtd">
<svg version="1.0" xmlns="http://www.w3.org/2000/svg"
 width="500.000000pt" height="500.000000pt" viewBox="0 0 500.000000 500.000000"
 preserveAspectRatio="xMidYMid meet">
<metadata>
Created by potrace 1.14, written by Peter Selinger 2001-2017
</metadata>
<g transform="translate(0.000000,500.000000) scale(0.100000,-0.100000)"
fill="#000000" stroke="none">
<path d="M2259 4996 c-2 -2 -22 -5 -44 -7 -22 -1 -46 -7 -52 -12 -7 -5 -26 -7
-43 -5 -18 3 -35 -1 -41 -9 -6 -7 -18 -13 -27 -13 -22 0 -82 -23 -82 -31 0 -4
-12 -10 -27 -15 -37 -10 -31 -8 -87 -34 -27 -12 -61 -33 -75 -46 -14 -13 -32
-22 -38 -19 -17 6 -93 -65 -97 -90 -2 -11 -10 -19 -18 -18 -8 2 -44 -26 -82
-62 -37 -35 -75 -66 -84 -67 -9 -2 -25 -13 -35 -26 -10 -12 -23 -20 -28 -16
-11 7 -50 -76 -42 -90 3 -5 1 -6 -4 -3 -14 9 -39 -21 -47 -55 -3 -16 -11 -28
-16 -28 -5 0 -21 -21 -34 -47 -13 -27 -45 -70 -70 -97 -28 -29 -48 -62 -52
-82 -3 -19 -10 -34 -15 -34 -12 0 -39 -55 -39 -79 0 -11 -9 -22 -21 -26 -12
-4 -18 -12 -15 -21 3 -8 1 -14 -5 -14 -6 0 -8 -9 -4 -19 3 -10 1 -48 -4 -82
-6 -35 -11 -106 -12 -156 -1 -54 -5 -93 -11 -93 -6 0 -7 -7 -4 -16 3 -9 3 -21
-1 -27 -18 -28 -21 -64 -29 -327 -4 -163 -15 -322 -27 -415 -1 -11 -6 -26 -10
-32 -5 -7 -5 -13 -1 -13 3 0 1 -7 -6 -15 -7 -8 -16 -13 -20 -10 -9 5 -44 -32
-55 -60 -12 -29 -14 -255 -2 -255 5 0 7 -7 4 -15 -4 -8 -2 -17 4 -21 6 -3 9
-44 8 -94 -1 -73 2 -96 20 -133 16 -33 22 -62 21 -104 -1 -32 6 -76 14 -98 8
-22 15 -48 16 -58 0 -24 39 -79 50 -72 11 7 32 -30 29 -53 -1 -9 0 -19 1 -22
1 -3 3 -15 6 -28 5 -28 31 -81 52 -104 8 -10 12 -18 7 -18 -4 0 -2 -7 5 -15 7
-8 14 -27 15 -42 1 -16 6 -44 10 -63 5 -19 8 -45 6 -57 -1 -11 2 -24 7 -27 5
-3 8 -19 6 -36 -2 -16 2 -42 8 -57 6 -16 10 -34 9 -41 -1 -8 6 -21 16 -29 10
-8 12 -11 4 -7 -11 5 -13 3 -8 -10 4 -10 10 -30 13 -44 4 -15 16 -37 28 -49
37 -39 46 -52 46 -68 0 -16 20 -56 32 -65 3 -3 8 -19 11 -35 8 -58 20 -95 28
-95 5 0 8 -3 8 -7 -3 -18 2 -30 19 -49 23 -24 48 -79 57 -124 7 -33 29 -67 82
-125 12 -14 20 -25 18 -25 -2 0 15 -20 38 -44 24 -24 41 -48 39 -54 -1 -5 6
-16 16 -24 11 -7 20 -17 20 -21 1 -16 63 -78 73 -72 5 4 13 -5 18 -18 9 -23
130 -109 138 -97 1 3 9 -5 18 -16 8 -12 27 -25 42 -29 15 -3 63 -23 108 -44
44 -21 90 -41 103 -45 12 -4 22 -12 22 -17 0 -5 6 -9 14 -9 8 0 16 -5 18 -12
6 -17 141 -37 255 -38 86 0 108 3 140 21 21 12 42 28 46 36 5 8 16 11 28 8 11
-4 19 -2 19 4 0 6 7 11 15 11 8 0 24 8 34 17 41 38 97 85 109 92 7 4 19 24 26
44 10 29 29 47 90 87 42 29 103 66 135 83 70 39 111 71 111 87 0 6 4 9 9 6 13
-8 40 26 43 55 3 24 27 51 39 43 4 -2 26 13 50 34 24 21 57 46 72 55 15 10 25
22 22 27 -4 6 -2 10 4 10 13 0 17 14 35 126 1 7 7 19 14 27 7 8 11 19 10 25
-2 5 13 25 32 44 37 37 85 97 85 107 0 4 25 44 55 91 30 47 56 95 57 108 1 12
9 29 17 37 8 9 15 32 14 53 -1 64 12 119 33 138 10 9 19 27 19 39 0 12 3 25 7
29 4 4 9 28 10 53 2 25 7 51 11 57 5 6 8 18 7 26 -1 20 46 51 67 44 9 -2 19 0
23 6 4 6 12 9 19 7 7 -3 26 1 42 8 35 15 94 110 101 163 3 19 16 56 30 83 13
27 22 53 18 58 -3 5 -1 12 4 15 4 3 9 27 9 53 1 27 6 73 12 103 10 52 11 62 9
93 0 6 2 41 6 77 13 131 13 195 0 225 -7 17 -16 57 -19 90 -5 48 -12 65 -35
89 -30 30 -40 33 -133 35 -56 1 -57 2 -54 29 3 33 -13 73 -35 89 -24 18 -37
94 -42 250 -1 39 -5 75 -9 79 -5 4 -8 18 -8 31 0 13 -4 23 -8 23 -5 0 -7 19
-6 43 9 122 10 198 3 203 -4 2 -11 26 -15 52 -3 26 -11 53 -16 59 -6 7 -11 35
-12 62 -1 27 -9 60 -17 72 -15 24 -41 100 -44 130 -1 9 -11 30 -23 46 -12 17
-22 35 -22 40 0 11 -46 122 -54 130 -3 3 -6 15 -6 25 0 10 -4 18 -9 18 -5 0
-15 17 -22 38 -17 53 -71 166 -81 170 -4 2 -8 9 -8 16 0 15 -84 106 -98 106
-5 0 -9 8 -8 17 0 10 -9 22 -21 28 -12 5 -28 20 -35 34 -17 32 -75 89 -99 96
-11 4 -19 11 -19 16 0 5 -7 9 -15 9 -8 0 -19 9 -25 21 -6 11 -16 19 -23 16 -6
-2 -18 3 -26 10 -43 37 -82 65 -93 67 -7 1 -19 5 -26 10 -7 4 -39 10 -70 13
-31 2 -64 7 -72 10 -8 4 -18 7 -22 8 -5 2 -9 4 -10 5 -2 1 -12 4 -23 5 -11 2
-33 8 -50 15 -16 7 -41 13 -53 14 -13 1 -28 9 -33 18 -5 9 -17 14 -31 11 -13
-2 -37 1 -53 8 -17 7 -37 11 -47 10 -9 -1 -19 2 -22 8 -6 9 -248 16 -257 7z"/>
</g>
</svg>
